<svg viewBox="0 0 1144 191" xmlns="http://www.w3.org/2000/svg" xml:space="preserve" style="fill-rule:evenodd;clip-rule:evenodd;stroke-linejoin:round;stroke-miterlimit:2"><defs><linearGradient id="a"><stop stop-color="#966fc3" offset="0%"/><stop stop-color="#45b2e8" offset="100%"/></linearGradient></defs><path d="M885.672 1026.93c-50.728 3.11-91.625 44.01-94.738 94.73h-.38c-3.108-50.73-44.008-91.63-94.738-94.73v-.38c50.73-3.11 91.63-44.012 94.738-94.742h.38c3.113 50.728 44.01 91.622 94.738 94.742v.38Zm555.408 61.28c-5.76 0-10.93-1.03-15.53-3.1-4.59-2.07-8.22-5.14-10.88-9.2s-3.99-9.06-3.99-15.02c0-5.12.94-9.36 2.84-12.72 1.89-3.35 4.47-6.03 7.75-8.04 3.27-2.01 6.96-3.54 11.08-4.58 4.13-1.05 8.39-1.81 12.81-2.28 5.32-.55 9.64-1.05 12.95-1.51 3.31-.45 5.73-1.16 7.25-2.13 1.51-.96 2.27-2.47 2.27-4.52v-.35c0-4.46-1.32-7.91-3.96-10.36-2.64-2.44-6.45-3.66-11.41-3.66-5.25 0-9.4 1.14-12.45 3.43-3.06 2.29-5.12 4.99-6.18 8.1l-19.99-2.84c1.57-5.52 4.18-10.14 7.8-13.87 3.63-3.72 8.07-6.523 13.31-8.396 5.24-1.873 11.04-2.809 17.39-2.809 4.37 0 8.73.513 13.07 1.538s8.3 2.71 11.89 5.057c3.58 2.35 6.47 5.53 8.66 9.55 2.19 4.02 3.28 9.05 3.28 15.08v60.8h-20.58v-12.48h-.71c-1.3 2.53-3.12 4.88-5.47 7.07-2.35 2.19-5.28 3.94-8.81 5.26-3.53 1.33-7.66 1.98-12.39 1.98Zm269.61-41.39c.06 5.05 1.03 9.4 2.89 13.04 1.94 3.76 4.64 6.64 8.11 8.63 3.47 1.99 7.53 2.99 12.18 2.99 3.12 0 5.93-.45 8.46-1.33 2.52-.89 4.71-2.2 6.56-3.94 1.86-1.73 3.25-3.88 4.2-6.44l19.99 2.25c-1.26 5.28-3.66 9.88-7.18 13.81-3.53 3.92-8.04 6.95-13.52 9.1-5.48 2.15-11.75 3.23-18.81 3.23-9.1 0-16.96-1.91-23.56-5.71-6.61-3.81-11.68-9.21-15.23-16.21-3.55-6.99-5.33-15.24-5.33-24.75 0-9.34 1.79-17.55 5.36-24.63 3.56-7.08 8.56-12.6 14.99-16.56 6.43-3.964 13.98-5.945 22.65-5.945 5.6 0 10.89.897 15.88 2.691 4.99 1.794 9.4 4.564 13.25 8.314 3.84 3.74 6.87 8.5 9.08 14.28 2.21 5.77 3.31 12.65 3.31 20.61v6.57h-63.28Zm-68.88 41.34c-9.07 0-16.84-2-23.33-5.98-6.49-3.98-11.47-9.49-14.96-16.53-3.49-7.04-5.24-15.15-5.24-24.33 0-9.23 1.78-17.38 5.33-24.46 3.54-7.08 8.56-12.6 15.05-16.56 6.48-3.964 14.16-5.945 23.03-5.945 7.38 0 13.91 1.35 19.61 4.051 5.7 2.704 10.24 6.504 13.63 11.414 3.39 4.91 5.33 10.64 5.8 17.18h-20.46c-.83-4.37-2.79-8.03-5.89-10.97-3.09-2.94-7.23-4.41-12.39-4.41-4.38 0-8.22 1.18-11.53 3.52-3.32 2.35-5.89 5.71-7.72 10.09-1.84 4.37-2.75 9.62-2.75 15.73 0 6.19.91 11.5 2.72 15.94 1.81 4.44 4.37 7.85 7.66 10.23 3.29 2.39 7.16 3.58 11.62 3.58 3.15 0 5.98-.6 8.49-1.81 2.5-1.2 4.6-2.94 6.3-5.23 1.69-2.29 2.85-5.07 3.49-8.34h20.46c-.51 6.43-2.41 12.12-5.68 17.06-3.27 4.95-7.73 8.82-13.37 11.6-5.63 2.78-12.26 4.17-19.87 4.17Zm-682.853-31.64-10.017 29.86h-23.421l42.643-121.123h27.087l42.701 121.123h-23.42l-10.03-29.86h-45.543Zm111.913-91.263v121.123h-21.95V965.257h21.95Zm171.84 67.893v53.23h-21.41v-90.842h20.46v15.432h1.07c2.09-5.08 5.43-9.12 10.02-12.12 4.6-2.997 10.28-4.495 17.06-4.495 6.27 0 11.74 1.341 16.42 4.022 4.67 2.683 8.3 6.563 10.88 11.653 2.58 5.08 3.85 11.25 3.81 18.51v57.84h-21.4v-54.53c0-6.07-1.57-10.82-4.71-14.25-3.13-3.43-7.46-5.15-12.98-5.15-3.75 0-7.07.82-9.97 2.46-2.89 1.63-5.16 3.99-6.8 7.07-1.63 3.07-2.45 6.8-2.45 11.17Zm284.33 0v53.23h-21.41v-90.842h20.47v15.432h1.06c2.09-5.08 5.43-9.12 10.03-12.12 4.59-2.997 10.28-4.495 17.06-4.495 6.27 0 11.74 1.341 16.41 4.022 4.67 2.683 8.3 6.563 10.88 11.653 2.59 5.08 3.86 11.25 3.82 18.51v57.84h-21.41v-54.53c0-6.07-1.57-10.82-4.7-14.25-3.14-3.43-7.46-5.15-12.98-5.15-3.75 0-7.07.82-9.97 2.46-2.9 1.63-5.17 3.99-6.8 7.07-1.64 3.07-2.46 6.8-2.46 11.17Zm-400.99 53.23V965.257h78.78v18.393h-56.84v32.88h52.76v18.4h-52.76v33.06h57.31v18.39h-79.25Zm213.21-53.23v53.23h-21.41V965.257h20.94v45.713h1.06c2.13-5.12 5.43-9.17 9.91-12.15 4.48-2.977 10.18-4.465 17.12-4.465 6.31 0 11.81 1.321 16.5 3.963 4.7 2.642 8.33 6.502 10.91 11.592 2.59 5.09 3.88 11.3 3.88 18.63v57.84h-21.41v-54.53c0-6.11-1.57-10.87-4.7-14.28-3.14-3.41-7.52-5.12-13.16-5.12-3.79 0-7.17.82-10.15 2.46-2.97 1.63-5.3 3.99-6.97 7.07-1.68 3.07-2.52 6.8-2.52 11.17Zm447.81 53.23v-90.842h20.76v15.142h.95c1.65-5.24 4.5-9.3 8.54-12.155 4.04-2.859 8.67-4.288 13.87-4.288 1.18 0 2.51.049 3.99.148 1.48.098 2.71.246 3.7.443v19.692c-.91-.31-2.34-.6-4.29-.85-1.95-.26-3.83-.39-5.65-.39-3.9 0-7.4.84-10.49 2.51-3.1 1.68-5.53 4-7.31 6.95-1.77 2.96-2.66 6.37-2.66 10.24v53.4h-21.41Zm-340.43-13.9c4.29 0 8.02-.85 11.18-2.57 3.15-1.72 5.58-3.99 7.3-6.83 1.72-2.84 2.57-5.94 2.57-9.29v-10.7c-.67.55-1.8 1.06-3.4 1.54-1.6.47-3.38.88-5.35 1.24-1.97.35-3.92.67-5.86.95-1.93.27-3.6.51-5.02.71-3.2.43-6.05 1.14-8.58 2.12-2.52.99-4.51 2.36-5.97 4.11-1.46 1.76-2.19 4.02-2.19 6.78 0 3.94 1.44 6.92 4.32 8.93 2.88 2.01 6.54 3.01 11 3.01Zm-464.462-82.383 16.395 48.793h-33.705l16.364-48.793h.946Zm729.162 38.233c.43-2.05 1.16-4 2.16-5.85 1.83-3.41 4.4-6.17 7.71-8.28 3.32-2.11 7.16-3.17 11.54-3.17l2.98.18c2.89.35 5.49 1.21 7.81 2.6 3.09 1.86 5.51 4.39 7.25 7.6 1.73 3.22 2.62 6.87 2.66 10.97h-42.72c.08-1.39.27-2.75.61-4.05Z" fill="url(#a)" transform="translate(-695.573 -931.507)"/></svg>