<svg width="34" height="46" viewBox="0 0 34 46" fill="none" xmlns="http://www.w3.org/2000/svg">
  <path fillRule="evenodd" clipRule="evenodd" d="M-263 23C-263 11.402 -253.598 2 -242 2H-151C-143.57 2 -137.041 5.85877 -133.308 11.6816C-131.429 14.6132 -128.482 17 -125 17V17C-121.518 17 -118.571 14.6132 -116.692 11.6816C-112.959 5.85877 -106.43 2 -99 2H-9C-1.56987 2 4.959 5.85878 8.6919 11.6816C10.5713 14.6132 13.5177 17 17 17V17C20.4822 17 23.4287 14.6132 25.3081 11.6816C29.041 5.85877 35.5699 2 43 2H109C116.43 2 122.959 5.85877 126.692 11.6816C128.571 14.6132 131.518 17 135 17V17C138.482 17 141.429 14.6132 143.308 11.6816C147.041 5.85877 153.57 2 161 2H337C344.43 2 350.959 5.85877 354.692 11.6816C356.571 14.6132 359.518 17 363 17V17C366.482 17 369.429 14.6132 371.308 11.6816C375.041 5.85877 381.57 2 389 2H456C467.598 2 477 11.402 477 23C477 34.598 467.598 44 456 44H389C381.57 44 375.041 40.1412 371.308 34.3184C369.429 31.3868 366.482 29 363 29V29C359.518 29 356.571 31.3868 354.692 34.3184C350.959 40.1412 344.43 44 337 44H161C153.57 44 147.041 40.1412 143.308 34.3184C141.429 31.3868 138.482 29 135 29V29C131.518 29 128.571 31.3868 126.692 34.3184C122.959 40.1412 116.43 44 109 44H43C35.5699 44 29.041 40.1412 25.3081 34.3184C23.4287 31.3868 20.4823 29 17 29V29C13.5177 29 10.5713 31.3868 8.69191 34.3184C4.959 40.1412 -1.56987 44 -9 44H-99C-106.43 44 -112.959 40.1412 -116.692 34.3184C-118.571 31.3868 -121.518 29 -125 29V29C-128.482 29 -131.429 31.3868 -133.308 34.3184C-137.041 40.1412 -143.57 44 -151 44H-242C-253.598 44 -263 34.598 -263 23Z" fill="currentColor"/>
</svg>
