<svg width="10" height="22" viewBox="0 0 10 22" fill="none" xmlns="http://www.w3.org/2000/svg">
  <path fillRule="evenodd" clipRule="evenodd" d="M-368 -61C-368 -74.2548 -357.255 -85 -344 -85H-24C-10.7451 -85 0 -74.2548 0 -61V0C0 2.76142 2.23858 5 5 5C7.76142 5 10 2.76142 10 0V-61C10 -74.2548 20.7452 -85 34 -85H354C367.255 -85 378 -74.2548 378 -61V0C378 2.76142 380.239 5 383 5C385.761 5 388 2.76142 388 0V-61C388 -74.2548 398.745 -85 412 -85H732C745.255 -85 756 -74.2548 756 -61V82C756 95.2548 745.255 106 732 106H412C398.745 106 388 95.2548 388 82V22C388 19.2386 385.761 17 383 17C380.239 17 378 19.2386 378 22V82C378 95.2548 367.255 106 354 106H34C20.7451 106 10 95.2548 10 82V22C10 19.2386 7.76142 17 5 17C2.23858 17 0 19.2386 0 22V82C0 95.2548 -10.7452 106 -24 106H-344C-357.255 106 -368 95.2548 -368 82V-61Z" fill="currentColor"/>
</svg>
